<svg width="102" height="101" viewBox="0 0 102 101" fill="none" xmlns="http://www.w3.org/2000/svg">
<g clip-path="url('#clip0_209_17')">
<path d="M61.3613 37.7794C60.7993 37.2139 60.1309 36.7654 59.3945 36.46C58.6581 36.1546 57.8685 35.9982 57.0713 36H47.5406C46.7433 35.9989 45.9536 36.1552 45.2167 36.4598C44.4799 36.7645 43.8104 37.2115 43.2465 37.7753C42.6827 38.3391 42.2357 39.0086 41.9311 39.7455C41.6264 40.4823 41.4702 41.272 41.4713 42.0694V55.9306C41.4595 56.0513 41.4732 56.1731 41.5114 56.2882C41.5495 56.4033 41.6113 56.5091 41.6928 56.5989C41.7743 56.6887 41.8737 56.7604 41.9845 56.8095C42.0954 56.8586 42.2153 56.884 42.3366 56.884C42.4578 56.884 42.5777 56.8586 42.6886 56.8095C42.7994 56.7604 42.8988 56.6887 42.9803 56.5989C43.0618 56.5091 43.1236 56.4033 43.1618 56.2882C43.1999 56.1731 43.2136 56.0513 43.2019 55.9306V42.0694C43.2008 41.4993 43.3123 40.9346 43.53 40.4078C43.7476 39.8809 44.0672 39.4021 44.4703 38.999C44.8734 38.5959 45.3521 38.2764 45.879 38.0587C46.4059 37.8411 46.9706 37.7296 47.5406 37.7306H57.0713C58.2198 37.7306 59.3213 38.1869 60.1335 38.9991C60.9456 39.8112 61.4019 40.9127 61.4019 42.0613V55.9306C61.4019 57.0792 60.9456 58.1807 60.1335 58.9929C59.3213 59.805 58.2198 60.2613 57.0713 60.2613H43.21C42.0614 60.2613 40.9599 59.805 40.1478 58.9929C39.3356 58.1807 38.8794 57.0792 38.8794 55.9306V49C38.8794 48.7694 38.7878 48.5483 38.6247 48.3853C38.4617 48.2222 38.2406 48.1306 38.01 48.1306C37.7794 48.1306 37.5583 48.2222 37.3953 48.3853C37.2322 48.5483 37.1406 48.7694 37.1406 49V55.9306C37.1406 57.5403 37.7801 59.0841 38.9183 60.2223C40.0565 61.3606 41.6003 62 43.21 62H57.0713C57.8686 62.0011 58.6583 61.8448 59.3952 61.5402C60.132 61.2356 60.8015 60.7885 61.3653 60.2247C61.9291 59.6609 62.3762 58.9914 62.6808 58.2546C62.9854 57.5177 63.1417 56.728 63.1406 55.9306V42.0694C63.1424 41.2722 62.9861 40.4825 62.6806 39.7462C62.3752 39.0098 61.9268 38.3413 61.3613 37.7794Z" fill="white"></path>
<path d="M48.4104 43.8001H57.0716C57.1923 43.8118 57.3141 43.7982 57.4292 43.76C57.5442 43.7218 57.6501 43.66 57.7399 43.5785C57.8296 43.4971 57.9014 43.3977 57.9505 43.2868C57.9996 43.176 58.0249 43.0561 58.0249 42.9348C58.0249 42.8136 57.9996 42.6937 57.9505 42.5828C57.9014 42.4719 57.8296 42.3726 57.7399 42.2911C57.6501 42.2096 57.5442 42.1478 57.4292 42.1096C57.3141 42.0714 57.1923 42.0578 57.0716 42.0695H48.4104C48.2897 42.0578 48.1679 42.0714 48.0528 42.1096C47.9377 42.1478 47.8319 42.2096 47.7421 42.2911C47.6523 42.3726 47.5806 42.4719 47.5315 42.5828C47.4824 42.6937 47.457 42.8136 47.457 42.9348C47.457 43.0561 47.4824 43.176 47.5315 43.2868C47.5806 43.3977 47.6523 43.4971 47.7421 43.5785C47.8319 43.66 47.9377 43.7218 48.0528 43.76C48.1679 43.7982 48.2897 43.8118 48.4104 43.8001Z" fill="white"></path>
<path d="M48.4104 49.8693H57.0717C57.2867 49.8484 57.4863 49.7483 57.6315 49.5883C57.7767 49.4283 57.8571 49.22 57.8571 49.004C57.8571 48.7879 57.7767 48.5796 57.6315 48.4197C57.4863 48.2597 57.2867 48.1595 57.0717 48.1387H48.4104C48.1954 48.1595 47.9958 48.2597 47.8506 48.4197C47.7054 48.5796 47.625 48.7879 47.625 49.004C47.625 49.22 47.7054 49.4283 47.8506 49.5883C47.9958 49.7483 48.1954 49.8484 48.4104 49.8693Z" fill="white"></path>
<path d="M48.4104 55.9307H53.6104C53.8254 55.9099 54.0249 55.8097 54.1701 55.6497C54.3153 55.4898 54.3958 55.2815 54.3958 55.0654C54.3958 54.8494 54.3153 54.6411 54.1701 54.4811C54.0249 54.3211 53.8254 54.221 53.6104 54.2001H48.4104C48.2897 54.1884 48.1679 54.2021 48.0528 54.2402C47.9377 54.2784 47.8319 54.3402 47.7421 54.4217C47.6523 54.5032 47.5806 54.6025 47.5315 54.7134C47.4824 54.8243 47.457 54.9442 47.457 55.0654C47.457 55.1867 47.4824 55.3066 47.5315 55.4174C47.5806 55.5283 47.6523 55.6277 47.7421 55.7092C47.8319 55.7906 47.9377 55.8525 48.0528 55.8906C48.1679 55.9288 48.2897 55.9424 48.4104 55.9307Z" fill="white"></path>
</g>
<g filter="url('#filter0_d_209_17')">
<circle cx="50.6406" cy="50.5" r="28.5" stroke="white" stroke-width="2"></circle>
</g>
<defs>
<filter id="filter0_d_209_17" x="0.140625" y="0" width="101" height="101" filterUnits="userSpaceOnUse" color-interpolation-filters="sRGB">
<feFlood flood-opacity="0" result="BackgroundImageFix"></feFlood>
<feColorMatrix in="SourceAlpha" type="matrix" values="0 0 0 0 0 0 0 0 0 0 0 0 0 0 0 0 0 0 127 0" result="hardAlpha"></feColorMatrix>
<feMorphology radius="1" operator="dilate" in="SourceAlpha" result="effect1_dropShadow_209_17"></feMorphology>
<feOffset></feOffset>
<feGaussianBlur stdDeviation="10"></feGaussianBlur>
<feColorMatrix type="matrix" values="0 0 0 0 0.0823529 0 0 0 0 0.929412 0 0 0 0 0.929412 0 0 0 1 0"></feColorMatrix>
<feBlend mode="normal" in2="BackgroundImageFix" result="effect1_dropShadow_209_17"></feBlend>
<feBlend mode="normal" in="SourceGraphic" in2="effect1_dropShadow_209_17" result="shape"></feBlend>
</filter>
<clipPath id="clip0_209_17">
<rect width="26" height="26" fill="white" transform="translate(37.1406 36)"></rect>
</clipPath>
</defs>
</svg>
