<svg width="102" height="101" viewBox="0 0 102 101" fill="none" xmlns="http://www.w3.org/2000/svg">
<path d="M48.0659 28.9697C47.6892 28.9697 47.3838 29.2751 47.3838 29.6518V30.0066C47.3838 30.3833 47.6892 30.6887 48.0659 30.6887C48.4426 30.6887 48.748 30.3833 48.748 30.0066V29.6518C48.748 29.2751 48.4426 28.9697 48.0659 28.9697Z" fill="white"></path>
<path d="M12.0768 42.5339L26.7342 50.9982C27.4903 51.4376 28.3377 51.657 29.1849 51.657C30.032 51.657 30.8786 51.4376 31.6333 50.9992L46.2904 42.5349C47.8066 41.6663 48.7482 40.0412 48.7482 38.2936V33.1231C48.7482 32.7464 48.4427 32.4409 48.0661 32.4409C47.6894 32.4409 47.3839 32.7464 47.3839 33.1231V38.2936C47.3839 39.5533 46.7051 40.725 45.6103 41.3522L30.9496 49.8185C29.8612 50.4514 28.5085 50.4517 27.4181 49.8176L12.757 41.3512C11.6641 40.725 10.9853 39.5533 10.9853 38.2936V21.3634C10.9853 20.1037 11.6641 18.9319 12.7589 18.3047L27.4196 9.8385C28.5081 9.20568 29.8607 9.20533 30.9511 9.83948L45.6122 18.3058C46.705 18.9319 47.3838 20.1037 47.3838 21.3634V26.5339C47.3838 26.9106 47.6893 27.216 48.066 27.216C48.4427 27.216 48.7481 26.9106 48.7481 26.5339V21.3634C48.7481 19.6157 47.8065 17.9907 46.2924 17.123L31.635 8.65874C30.1232 7.7804 28.2456 7.78076 26.7358 8.65777L12.0788 17.122C10.5627 17.9907 9.62109 19.6157 9.62109 21.3634V38.2936C9.62109 40.0412 10.5627 41.6663 12.0768 42.5339Z" fill="white"></path>
<path d="M29.526 14.7467C29.3148 14.6248 29.0551 14.6248 28.8439 14.7467L16.2942 21.9923C16.0831 22.1142 15.9531 22.3393 15.9531 22.5832V37.074C15.9531 37.3178 16.0831 37.543 16.2942 37.6649L28.8439 44.9104C28.9494 44.9714 29.0671 45.0017 29.185 45.0017C29.3029 45.0017 29.4205 44.9714 29.5261 44.9104L42.0759 37.6649C42.287 37.543 42.417 37.3178 42.417 37.074V22.5832C42.417 22.3393 42.287 22.1142 42.0759 21.9923L29.526 14.7467ZM41.0525 36.6803L29.1849 43.5319L17.3174 36.6803V22.9769L29.1849 16.1253L41.0525 22.9769V36.6803Z" fill="white"></path>
<path d="M24.9514 25.7765C24.5747 25.7765 24.2693 26.0819 24.2693 26.4586V30.9094L21.1115 26.0848C20.946 25.8327 20.6335 25.7188 20.3457 25.8047C20.0566 25.8909 19.8584 26.1567 19.8584 26.4585V33.1968C19.8584 33.5735 20.1638 33.8789 20.5405 33.8789C20.9172 33.8789 21.2226 33.5735 21.2226 33.1968V28.746L24.3805 33.5706C24.7502 34.1339 25.6335 33.8763 25.6335 33.1969V26.4586C25.6336 26.0819 25.3281 25.7765 24.9514 25.7765Z" fill="white"></path>
<path d="M33.0386 27.1416H34.7512V33.1978C34.7512 33.5745 35.0566 33.8799 35.4333 33.8799C35.81 33.8799 36.1154 33.5745 36.1154 33.1978V27.1416H37.8284C38.2051 27.1416 38.5105 26.8362 38.5105 26.4595C38.5105 26.0828 38.2051 25.7773 37.8284 25.7773H33.0386C32.6619 25.7773 32.3564 26.0828 32.3564 26.4595C32.3564 26.8362 32.6619 27.1416 33.0386 27.1416Z" fill="white"></path>
<path d="M26.9756 26.4595V33.1978C26.9756 33.5745 27.281 33.8799 27.6577 33.8799C28.0344 33.8799 28.3398 33.5745 28.3398 33.1978V30.5109H31.031C31.4077 30.5109 31.7131 30.2054 31.7131 29.8287C31.7131 29.452 31.4077 29.1466 31.031 29.1466H28.3398V27.1416H31.031C31.4077 27.1416 31.7131 26.8362 31.7131 26.4595C31.7131 26.0828 31.4077 25.7773 31.031 25.7773H27.6577C27.281 25.7773 26.9756 26.0828 26.9756 26.4595Z" fill="white"></path>
<circle cx="29.6406" cy="29.9648" r="28.5" stroke="white" stroke-width="2"></circle>
</svg>
