<svg width="59" height="59" viewBox="0 0 59 59" fill="none" xmlns="http://www.w3.org/2000/svg">
<circle cx="29.5" cy="29.5" r="28.5" stroke="white" stroke-width="2"></circle>
<path d="M18.561 44.4375H20.1897C20.4743 45.2357 21.2306 45.8125 22.1257 45.8125C23.2628 45.8125 24.1882 44.8871 24.1882 43.75C24.1882 42.6129 23.2628 41.6875 22.1257 41.6875C21.2306 41.6875 20.4743 42.2643 20.1897 43.0625H18.561C18.2764 42.2643 17.5201 41.6875 16.625 41.6875C15.4879 41.6875 14.5625 42.6129 14.5625 43.75C14.5625 44.8871 15.4879 45.8125 16.625 45.8125C17.5201 45.8125 18.2764 45.2357 18.561 44.4375ZM22.125 43.0625C22.5038 43.0625 22.8125 43.3705 22.8125 43.75C22.8125 44.1295 22.5038 44.4375 22.125 44.4375C21.7462 44.4375 21.4375 44.1295 21.4375 43.75C21.4375 43.3705 21.7462 43.0625 22.125 43.0625ZM15.9375 43.75C15.9375 43.3705 16.2462 43.0625 16.625 43.0625C17.0038 43.0625 17.3125 43.3705 17.3125 43.75C17.3125 44.1295 17.0038 44.4375 16.625 44.4375C16.2462 44.4375 15.9375 44.1295 15.9375 43.75Z" fill="white"></path>
<path d="M42.189 41.6875C42.4736 42.4857 43.2299 43.0625 44.125 43.0625C45.2621 43.0625 46.1875 42.1371 46.1875 41C46.1875 39.8629 45.2621 38.9375 44.125 38.9375C43.2299 38.9375 42.4736 39.5143 42.189 40.3125H37.9375C37.558 40.3125 37.25 40.6198 37.25 41V44.564C36.4518 44.8486 35.875 45.6049 35.875 46.5C35.875 47.6371 36.8004 48.5625 37.9375 48.5625C39.0746 48.5625 40 47.6371 40 46.5C40 45.6049 39.4232 44.8486 38.625 44.564V41.6875H42.189ZM44.125 40.3125C44.5038 40.3125 44.8125 40.6205 44.8125 41C44.8125 41.3795 44.5038 41.6875 44.125 41.6875C43.7462 41.6875 43.4375 41.3795 43.4375 41C43.4375 40.6205 43.7462 40.3125 44.125 40.3125ZM37.9375 47.1875C37.5587 47.1875 37.25 46.8795 37.25 46.5C37.25 46.1205 37.5587 45.8125 37.9375 45.8125C38.3163 45.8125 38.625 46.1205 38.625 46.5C38.625 46.8795 38.3163 47.1875 37.9375 47.1875Z" fill="white"></path>
<path d="M30 8.375C18.6274 8.375 9.375 17.6274 9.375 29C9.375 29.3802 9.683 29.6875 10.0625 29.6875H19.6875V31.8765C19.1052 32.0841 18.6466 32.5427 18.439 33.125H15.1596L13.2986 31.2639C13.17 31.1347 12.9947 31.0625 12.8125 31.0625H10.0625V32.4375H12.5279L14.3889 34.2986C14.5175 34.4278 14.6928 34.5 14.875 34.5H18.439C18.6466 35.0823 19.1052 35.5409 19.6875 35.7485V37.25H15.436C15.1514 36.4518 14.3951 35.875 13.5 35.875C12.3629 35.875 11.4375 36.8004 11.4375 37.9375C11.4375 39.0746 12.3629 40 13.5 40C14.3951 40 15.1514 39.4232 15.436 38.625H20.375C20.7545 38.625 21.0625 38.3177 21.0625 37.9375V35.7485C21.8607 35.4639 22.4375 34.7076 22.4375 33.8125C22.4375 32.9174 21.8607 32.1611 21.0625 31.8765V29.6875H23.8125V37.25C23.8125 37.4329 23.8847 37.6075 24.0139 37.7361L26.5625 40.2846V45.6265C25.7643 45.9111 25.1875 46.6674 25.1875 47.5625C25.1875 48.6996 26.1129 49.625 27.25 49.625C28.3871 49.625 29.3125 48.6996 29.3125 47.5625C29.3125 46.6674 28.7357 45.9111 27.9375 45.6265V40.2846L29.1111 39.1111C29.2403 38.9825 29.3125 38.8079 29.3125 38.625V35.061C30.1107 34.7764 30.6875 34.0201 30.6875 33.125C30.6875 32.2299 30.1107 31.4736 29.3125 31.189V29.6875H35.9029L34.3264 31.2639C34.1972 31.3925 34.125 31.5671 34.125 31.75V33.2515C33.3268 33.5361 32.75 34.2924 32.75 35.1875C32.75 36.0826 33.3268 36.8389 34.125 37.1235V39.0279L32.9514 40.2014C32.8222 40.33 32.75 40.5046 32.75 40.6875V44.939C31.9518 45.2236 31.375 45.9799 31.375 46.875C31.375 48.0121 32.3004 48.9375 33.4375 48.9375C34.5746 48.9375 35.5 48.0121 35.5 46.875C35.5 45.9799 34.9232 45.2236 34.125 44.939V40.9721L35.2986 39.7986C35.4278 39.67 35.5 39.4954 35.5 39.3125V37.1235C36.0823 36.9159 36.5409 36.4573 36.7485 35.875H40.3125C40.4947 35.875 40.67 35.8028 40.7986 35.6736L42.6596 33.8125H45.939C46.2236 34.6107 46.9799 35.1875 47.875 35.1875C49.0121 35.1875 49.9375 34.2621 49.9375 33.125C49.9375 32.2299 49.3607 31.4736 48.5625 31.189V29.6875H49.9375C50.317 29.6875 50.625 29.3802 50.625 29C50.625 17.6274 41.3726 8.375 30 8.375ZM13.5 38.625C13.1212 38.625 12.8125 38.317 12.8125 37.9375C12.8125 37.558 13.1212 37.25 13.5 37.25C13.8788 37.25 14.1875 37.558 14.1875 37.9375C14.1875 38.317 13.8788 38.625 13.5 38.625ZM20.375 34.5C19.9962 34.5 19.6875 34.192 19.6875 33.8125C19.6875 33.433 19.9962 33.125 20.375 33.125C20.7538 33.125 21.0625 33.433 21.0625 33.8125C21.0625 34.192 20.7538 34.5 20.375 34.5ZM33.4375 47.5625C33.0587 47.5625 32.75 47.2545 32.75 46.875C32.75 46.4955 33.0587 46.1875 33.4375 46.1875C33.8163 46.1875 34.125 46.4955 34.125 46.875C34.125 47.2545 33.8163 47.5625 33.4375 47.5625ZM46.6698 19.3832C45.5891 19.8109 44.4114 20.1924 43.1574 20.5266C42.5648 18.6545 41.7824 16.9316 40.8446 15.4067C41.594 15.2163 42.2946 15.0039 42.9484 14.7736C44.4121 16.1073 45.6716 17.6597 46.6698 19.3832ZM36.1827 28.3125C36.1655 26.5999 36.0858 24.8778 35.9441 23.1996C38.1393 22.9768 40.2499 22.6324 42.2121 22.1779C42.7071 24.0961 42.9986 26.1593 43.0501 28.3125H36.1827ZM33.2264 15.1455C32.1718 15.2108 31.0952 15.25 30 15.25C28.9048 15.25 27.8282 15.2108 26.7736 15.1455C27.7354 11.6729 28.9715 9.75 30 9.75C31.0285 9.75 32.2646 11.6729 33.2264 15.1455ZM32.6256 10.1412C34.8737 10.8197 36.9114 12.357 38.5793 14.5027C37.3425 14.7358 36.0115 14.9117 34.6262 15.0376C34.0913 13.0108 33.4231 11.3147 32.6256 10.1412ZM33.5695 16.5033C33.9318 18.077 34.2391 19.8996 34.4571 21.9524C32.9968 22.0645 31.5056 22.125 30 22.125C28.4944 22.125 27.0032 22.0645 25.5436 21.9524C25.7616 19.8996 26.0689 18.077 26.4312 16.5033C27.5958 16.5817 28.7893 16.625 30 16.625C31.2107 16.625 32.4042 16.5817 33.5695 16.5033ZM25.3738 15.0369C23.9885 14.9111 22.6575 14.7351 21.4207 14.502C23.0886 12.3556 25.1256 10.8191 27.3744 10.1405C26.5769 11.3147 25.9087 13.0108 25.3738 15.0369ZM25.0479 16.3871C24.6788 18.0591 24.3914 19.9044 24.1865 21.8321C22.0766 21.6183 20.0505 21.2897 18.1681 20.8566C18.7724 18.9563 19.5823 17.2266 20.5538 15.7258C21.9494 16.0145 23.4598 16.2359 25.0479 16.3871ZM24.0552 23.1996C23.9136 24.8778 23.8338 26.5999 23.8166 28.3125H16.9485C17.0001 26.1599 17.2916 24.0961 17.7866 22.1779C19.7494 22.6331 21.86 22.9768 24.0552 23.1996ZM25.4158 23.3206C26.9186 23.4374 28.4524 23.5 30 23.5C31.5476 23.5 33.0814 23.4374 34.5842 23.3206C34.7128 24.8722 34.7912 26.5387 34.807 28.3125H25.1923C25.2088 26.5394 25.2872 24.8722 25.4158 23.3206ZM35.8142 21.8321C35.6093 19.9044 35.3219 18.0591 34.9527 16.3871C36.5402 16.2359 38.0513 16.0145 39.4469 15.7264C40.4184 17.2279 41.2282 18.9577 41.8326 20.8573C39.9502 21.2897 37.9241 21.6183 35.8142 21.8321ZM41.7143 13.7409C41.1843 13.9046 40.6226 14.0551 40.0354 14.194C39.1939 13.0294 38.2541 12.0112 37.2352 11.1642C38.8495 11.8207 40.3531 12.6925 41.7143 13.7409ZM19.9639 14.1933C19.3767 14.0544 18.8158 13.9039 18.285 13.7403C19.6469 12.6925 21.1498 11.8201 22.7641 11.1635C21.7452 12.0105 20.8054 13.0294 19.9639 14.1933ZM17.0516 14.7742C17.7054 15.0046 18.4053 15.217 19.1554 15.4074C18.2176 16.9323 17.4353 18.6552 16.8426 20.5273C15.5893 20.1931 14.4109 19.8116 13.3302 19.3839C14.3284 17.6597 15.5879 16.1073 17.0516 14.7742ZM12.6846 20.6049C13.8431 21.0711 15.1087 21.4856 16.459 21.8466C15.9331 23.8719 15.6264 26.0472 15.5742 28.3132H10.7617C10.8593 25.557 11.5434 22.95 12.6846 20.6049ZM27.25 48.25C26.8712 48.25 26.5625 47.942 26.5625 47.5625C26.5625 47.183 26.8712 46.875 27.25 46.875C27.6288 46.875 27.9375 47.183 27.9375 47.5625C27.9375 47.942 27.6288 48.25 27.25 48.25ZM28.625 33.8125C28.2462 33.8125 27.9375 33.5045 27.9375 33.125C27.9375 32.7455 28.2462 32.4375 28.625 32.4375C29.0038 32.4375 29.3125 32.7455 29.3125 33.125C29.3125 33.5045 29.0038 33.8125 28.625 33.8125ZM27.9375 31.189C27.1393 31.4736 26.5625 32.2299 26.5625 33.125C26.5625 34.0201 27.1393 34.7764 27.9375 35.061V38.3404L27.25 39.0279L25.1875 36.9654V29.6875H27.9375V31.189ZM34.8125 35.875C34.4337 35.875 34.125 35.567 34.125 35.1875C34.125 34.808 34.4337 34.5 34.8125 34.5C35.1913 34.5 35.5 34.808 35.5 35.1875C35.5 35.567 35.1913 35.875 34.8125 35.875ZM47.875 33.8125C47.4962 33.8125 47.1875 33.5045 47.1875 33.125C47.1875 32.7455 47.4962 32.4375 47.875 32.4375C48.2538 32.4375 48.5625 32.7455 48.5625 33.125C48.5625 33.5045 48.2538 33.8125 47.875 33.8125ZM47.1875 31.189C46.6052 31.3966 46.1466 31.8552 45.939 32.4375H42.375C42.1928 32.4375 42.0175 32.5097 41.8889 32.6389L40.0279 34.5H36.7485C36.5409 33.9177 36.0823 33.4591 35.5 33.2515V32.0346L37.8471 29.6875H47.1875V31.189ZM44.4251 28.3125C44.3729 26.0465 44.0662 23.8713 43.5403 21.8459C44.8906 21.4856 46.1562 21.0704 47.3147 20.6042C48.4566 22.95 49.1407 25.557 49.2376 28.3125H44.4251Z" fill="white"></path>
</svg>
