<svg width="60" height="60" viewBox="0 0 60 60" fill="none" xmlns="http://www.w3.org/2000/svg">
<circle cx="29.6406" cy="29.9648" r="28.5" stroke="white" stroke-width="2"></circle>
<path d="M29.5957 26.7129C29.5957 26.7129 29.5936 26.7112 29.5895 26.7078C29.587 26.7058 29.5838 26.7032 29.5798 26.7001C29.456 26.6029 28.6195 25.9937 27.4909 26.3336C26.3188 26.6867 26.0277 28.2905 26.8243 28.9152C27.2817 29.274 27.9698 29.5689 28.8973 29.8967C30.9731 30.6305 30.2057 33.5579 28.0942 33.572C27.2703 33.5774 26.885 33.5251 26.1611 33.0516" stroke="white" stroke-width="2" stroke-miterlimit="10" stroke-linecap="round" stroke-linejoin="round"></path>
<path d="M28.1406 24.7559V26.2253" stroke="white" stroke-width="2" stroke-miterlimit="10" stroke-linecap="round" stroke-linejoin="round"></path>
<path d="M28.1406 33.5723V35.0417" stroke="white" stroke-width="2" stroke-miterlimit="10" stroke-linecap="round" stroke-linejoin="round"></path>
<path d="M28.1402 37.9797C32.6036 37.9797 36.2219 34.3614 36.2219 29.898C36.2219 25.4347 32.6036 21.8164 28.1402 21.8164C23.6769 21.8164 20.0586 25.4347 20.0586 29.898C20.0586 34.3614 23.6769 37.9797 28.1402 37.9797Z" stroke="white" stroke-width="2" stroke-miterlimit="10" stroke-linecap="round" stroke-linejoin="round"></path>
<path d="M34.6609 25.122H39.5283V28.0608L46.1405 22.1832L39.5283 16.3057V19.2444H30.7119V22.2339" stroke="white" stroke-width="2" stroke-miterlimit="10" stroke-linecap="round" stroke-linejoin="round"></path>
<path d="M21.6202 34.6731H16.7528V31.7344L10.1406 37.612L16.7528 43.4895V40.5507H25.5692V37.5613" stroke="white" stroke-width="2" stroke-miterlimit="10" stroke-linecap="round" stroke-linejoin="round"></path>
</svg>
