<svg width="59" height="59" viewBox="0 0 59 59" fill="none" xmlns="http://www.w3.org/2000/svg">
<path d="M45.791 16.1823C45.7511 16.1209 45.7012 16.0665 45.6433 16.0216C43.6769 13.8133 41.2653 12.046 38.5669 10.8358C35.8685 9.62565 32.9444 9 29.9869 9C27.0293 9 24.1053 9.62565 21.4069 10.8358C18.7085 12.046 16.2968 13.8133 14.3304 16.0216C14.2754 16.0651 14.2278 16.1172 14.1893 16.1758V16.1922C11.5346 19.2278 9.81071 22.9635 9.22363 26.9526C8.63656 30.9417 9.21118 35.0155 10.8788 38.6868C12.5464 42.3581 15.2364 45.4716 18.6273 47.6552C22.0182 49.8388 25.9664 51 30 51C34.0336 51 37.9818 49.8388 41.3727 47.6552C44.7636 45.4716 47.4536 42.3581 49.1212 38.6868C50.7888 35.0155 51.3634 30.9417 50.7764 26.9526C50.1893 22.9635 48.4654 19.2278 45.8107 16.1922L45.791 16.1823ZM45.1348 42.5568C43.6438 41.6869 42.0614 40.984 40.4163 40.4609C41.4365 37.2901 41.9752 33.9842 42.0143 30.6537H49.6629C49.5229 35.016 47.9292 39.2065 45.1348 42.5601V42.5568ZM10.3207 30.6537H17.9693C18.0081 33.9853 18.5468 37.2923 19.5673 40.4642C17.9222 40.9873 16.3398 41.6902 14.8488 42.5601C12.0544 39.2065 10.4607 35.016 10.3207 30.6537ZM14.8981 17.3861C16.3816 18.2481 17.955 18.9454 19.5902 19.4656C18.5548 22.6571 18.0083 25.9868 17.9693 29.3417H10.3207C10.4637 24.9565 12.0756 20.7462 14.8981 17.3861ZM30.648 21.0236C33.5305 20.9828 36.3965 20.5817 39.1793 19.8297C40.1615 22.9064 40.6791 26.1123 40.7149 29.3417H30.648V21.0236ZM30.648 19.7116V10.357C33.9752 10.7277 36.8824 13.8961 38.7199 18.5931C36.0853 19.295 33.3743 19.6706 30.648 19.7116ZM29.3355 19.7116C26.6093 19.6706 23.8983 19.295 21.2637 18.5931C23.1012 13.8961 26.0084 10.7277 29.3355 10.357V19.7116ZM29.3355 21.0236V29.3417H19.2818C19.3134 26.113 19.8265 22.907 20.8043 19.8297C23.5871 20.5816 26.4531 20.9827 29.3355 21.0236ZM19.2818 30.6537H29.3355V38.8996C26.4528 38.9425 23.5868 39.3458 20.8043 40.1001C19.8337 37.0436 19.3207 33.8603 19.2818 30.6537ZM29.3355 40.2116V49.6384C25.9952 49.2644 23.0618 46.0697 21.2374 41.3367C23.8803 40.6303 26.6002 40.2525 29.3355 40.2116ZM30.648 40.2116C33.3834 40.2525 36.1033 40.6304 38.7462 41.3367C36.9218 46.0697 33.9884 49.2644 30.648 49.6384V40.2116ZM30.648 38.8996V30.6537H40.7018C40.6626 33.8592 40.1496 37.0413 39.1793 40.0968C36.3966 39.3436 33.5306 38.9414 30.648 38.8996ZM42.0143 29.3417C41.9753 25.9868 41.4288 22.6571 40.3934 19.4656C42.0285 18.9454 43.602 18.2481 45.0855 17.3861C47.9079 20.7462 49.5199 24.9565 49.6629 29.3417H42.0143ZM44.1963 16.3922C42.8478 17.1484 41.425 17.7639 39.9504 18.229C38.7396 15.1196 37.0596 12.6137 35.0909 10.9901C38.5626 11.9258 41.7116 13.7941 44.1963 16.3922ZM24.8927 10.9901C22.924 12.6038 21.2473 15.1163 20.0365 18.229C18.5619 17.7639 17.1391 17.1484 15.7906 16.3922C18.2743 13.7946 21.4222 11.9264 24.8927 10.9901ZM15.7413 43.5572C17.0951 42.7925 18.5246 42.1703 20.007 41.7007C21.221 44.843 22.9076 47.3817 24.8895 49.0053C21.3973 48.0638 18.2322 46.1788 15.7413 43.5572ZM35.1007 49.0053C37.0694 47.3653 38.7691 44.843 39.9832 41.7007C41.4655 42.1703 42.8951 42.7925 44.2488 43.5572C41.7553 46.1803 38.5865 48.0654 35.0909 49.0053H35.1007Z" fill="white"></path>
<circle cx="29.5" cy="29.5" r="28.5" stroke="white" stroke-width="2"></circle>
</svg>
