<svg width="119" height="119" viewBox="0 0 119 119" fill="none" xmlns="http://www.w3.org/2000/svg">
<g filter="url('#filter0_d_209_9')">
<circle cx="59.5" cy="59.5" r="37.5" stroke="#15EDED" stroke-width="2"></circle>
</g>
<path d="M63.8698 69.3751H54.4123C53.3427 69.4148 52.3007 69.0309 51.5127 68.3067C50.7246 67.5825 50.2542 66.5766 50.2035 65.5076V60.4376C50.2035 60.2221 50.2891 60.0154 50.4415 59.863C50.5939 59.7107 50.8005 59.6251 51.016 59.6251C51.2315 59.6251 51.4382 59.7107 51.5905 59.863C51.7429 60.0154 51.8285 60.2221 51.8285 60.4376V65.5076C51.8785 66.1458 52.1774 66.7387 52.6609 67.1583C53.1443 67.5779 53.7734 67.7904 54.4123 67.7501H63.8698C64.5086 67.7904 65.1377 67.5779 65.6212 67.1583C66.1046 66.7387 66.4036 66.1458 66.4535 65.5076V60.4376C66.4535 60.2221 66.5391 60.0154 66.6915 59.863C66.8439 59.7107 67.0505 59.6251 67.266 59.6251C67.4815 59.6251 67.6882 59.7107 67.8405 59.863C67.9929 60.0154 68.0785 60.2221 68.0785 60.4376V65.5076C68.0279 66.5766 67.5574 67.5825 66.7694 68.3067C65.9813 69.0309 64.9393 69.4148 63.8698 69.3751ZM70.2804 58.5769C70.3565 58.5014 70.417 58.4116 70.4582 58.3125C70.4995 58.2135 70.5207 58.1073 70.5207 58.0001C70.5207 57.8928 70.4995 57.7866 70.4582 57.6876C70.417 57.5886 70.3565 57.4987 70.2804 57.4232L59.7179 46.8607C59.6424 46.7845 59.5525 46.7241 59.4535 46.6828C59.3545 46.6416 59.2483 46.6204 59.141 46.6204C59.0338 46.6204 58.9276 46.6416 58.8286 46.6828C58.7295 46.7241 58.6397 46.7845 58.5641 46.8607L48.0016 57.4232C47.8486 57.5762 47.7627 57.7837 47.7627 58.0001C47.7627 58.2164 47.8486 58.4239 48.0016 58.5769C48.1546 58.7299 48.3621 58.8159 48.5785 58.8159C48.7949 58.8159 49.0024 58.7299 49.1554 58.5769L59.141 48.5832L69.1266 58.5769C69.2022 58.6531 69.292 58.7135 69.3911 58.7548C69.4901 58.796 69.5963 58.8173 69.7035 58.8173C69.8108 58.8173 69.917 58.796 70.016 58.7548C70.115 58.7135 70.2049 58.6531 70.2804 58.5769Z" fill="#15EDED"></path>
<defs>
<filter id="filter0_d_209_9" x="0" y="0" width="119" height="119" filterUnits="userSpaceOnUse" color-interpolation-filters="sRGB">
<feFlood flood-opacity="0" result="BackgroundImageFix"></feFlood>
<feColorMatrix in="SourceAlpha" type="matrix" values="0 0 0 0 0 0 0 0 0 0 0 0 0 0 0 0 0 0 127 0" result="hardAlpha"></feColorMatrix>
<feMorphology radius="1" operator="dilate" in="SourceAlpha" result="effect1_dropShadow_209_9"></feMorphology>
<feOffset></feOffset>
<feGaussianBlur stdDeviation="10"></feGaussianBlur>
<feColorMatrix type="matrix" values="0 0 0 0 0.0823529 0 0 0 0 0.929412 0 0 0 0 0.929412 0 0 0 1 0"></feColorMatrix>
<feBlend mode="normal" in2="BackgroundImageFix" result="effect1_dropShadow_209_9"></feBlend>
<feBlend mode="normal" in="SourceGraphic" in2="effect1_dropShadow_209_9" result="shape"></feBlend>
</filter>
</defs>
</svg>
