<svg width="102" height="101" viewBox="0 0 102 101" fill="none" xmlns="http://www.w3.org/2000/svg">
<path fill-rule="evenodd" clip-rule="evenodd" d="M49.408 35.1402C49.2879 35.2556 49.1899 35.9245 49.1899 36.6267V37.9029H50.7338H52.2777L52.1845 36.5039L52.0914 35.1048L50.8587 35.0173C50.1807 34.9693 49.5277 35.0244 49.408 35.1402ZM39.7234 39.5214L38.6887 40.551L39.5677 41.4358C40.0515 41.9227 40.6018 42.3209 40.7909 42.3209C41.2108 42.3209 42.7761 40.784 42.7761 40.3717C42.7761 40.0771 41.2029 38.492 40.9103 38.492C40.8266 38.492 40.2924 38.9553 39.7234 39.5214ZM59.6178 39.4795L58.6234 40.4689L59.4312 41.3949C60.3911 42.495 60.7876 42.5427 61.6134 41.6582C62.643 40.5555 62.6427 40.3879 61.6082 39.4212L60.6119 38.4902L59.6178 39.4795ZM46.9503 39.2775C46.8382 39.3853 46.7465 39.9894 46.7465 40.6197V41.7657L48.0418 41.675C49.4361 41.5778 49.7222 41.1707 49.364 39.7941C49.2143 39.2192 48.9822 39.081 48.1661 39.081C47.6093 39.081 47.062 39.1694 46.9503 39.2775ZM54.8487 40.5452L53.9663 41.4335L54.6856 42.1716C55.5875 43.0976 55.9262 43.0967 56.8336 42.1651L57.5593 41.4202L56.6452 40.5387L55.731 39.6568L54.8487 40.5452ZM51.0154 43.0646L50.2909 43.808L50.9662 44.4595C51.49 44.9643 51.7563 45.0412 52.1515 44.8006C53.1435 44.1974 53.3304 43.5794 52.7184 42.9273C51.9952 42.1565 51.8916 42.1651 51.0154 43.0646ZM40.8468 44.3264L40.0249 45.1537L40.9402 45.9996L41.8559 46.8452L42.6212 46.1516C43.0424 45.7702 43.3869 45.3054 43.3869 45.119C43.3869 44.7935 42.1356 43.499 41.821 43.499C41.7371 43.499 41.2988 43.8713 40.8468 44.3264ZM45.8303 44.8244C45.8303 45.8061 45.8813 45.8553 46.8992 45.8553C47.9172 45.8553 47.9682 45.8061 47.9682 44.8244C47.9682 43.8428 47.9172 43.7936 46.8992 43.7936C45.8813 43.7936 45.8303 43.8428 45.8303 44.8244ZM54.9928 46.2971C54.9928 47.2788 55.0438 47.328 56.0618 47.328C57.0798 47.328 57.1308 47.2788 57.1308 46.2971C57.1308 45.3154 57.0798 45.2662 56.0618 45.2662C55.0438 45.2662 54.9928 45.3154 54.9928 46.2971ZM59.2687 47.3112V48.5061H60.6614H62.0544L61.9594 47.4016C61.8675 46.3295 61.8266 46.2945 60.5667 46.2067L59.2687 46.116V47.3112ZM43.218 48.229C42.6087 48.8781 42.7926 49.4987 43.7711 50.0939C44.1416 50.3193 44.4269 50.2568 44.896 49.8471C45.6715 49.1706 45.6889 48.7406 44.9663 48.11C44.236 47.4726 43.9064 47.495 43.218 48.229ZM35.3443 48.7026C35.2323 48.8104 35.1406 49.4731 35.1406 50.1752V51.4514H36.6677H38.1948V49.9788V48.5061H36.8714C36.1433 48.5061 35.4561 48.5945 35.3443 48.7026ZM63.3674 48.9028C63.2734 49.1397 63.2401 49.777 63.2941 50.319C63.3891 51.2762 63.4306 51.3042 64.7662 51.3042H66.1406V49.9788V48.6534L64.8398 48.5627C63.9147 48.4982 63.4896 48.5965 63.3674 48.9028ZM56.5306 50.4094C55.8297 51.1292 55.8248 51.1678 56.3645 51.743C57.0669 52.4917 57.5016 52.4897 58.2101 51.7348C58.7602 51.1487 58.7556 51.1174 58.0131 50.4014L57.2529 49.668L56.5306 50.4094ZM39.4165 52.624C39.4165 53.6189 39.5286 53.8236 40.1559 53.9756C41.5834 54.3211 42.0055 54.0451 42.1063 52.7006L42.2004 51.4514H40.8083H39.4165V52.624ZM44.3032 53.6604C44.3032 54.6421 44.3542 54.6913 45.3722 54.6913C46.3901 54.6913 46.4411 54.6421 46.4411 53.6604C46.4411 52.6788 46.3901 52.6296 45.3722 52.6296C44.3542 52.6296 44.3032 52.6788 44.3032 53.6604ZM58.711 53.9002C57.8729 54.7608 57.8787 55.0253 58.7538 55.8182C59.6832 56.66 60.0191 56.6267 60.7631 55.6191L61.3831 54.7797L60.5383 53.9992C59.514 53.0528 59.5356 53.054 58.711 53.9002ZM53.5238 55.2068C53.6105 56.2173 53.6963 56.3113 54.5347 56.3113C55.3731 56.3113 55.4589 56.2173 55.5457 55.2068C55.6394 54.117 55.6257 54.1023 54.5347 54.1023C53.4438 54.1023 53.43 54.117 53.5238 55.2068ZM48.7156 55.5923C48.2907 56.0447 48.226 56.3198 48.4596 56.6771C49.0769 57.6208 49.7204 57.7981 50.3935 57.2105C51.169 56.5339 51.1864 56.1039 50.4638 55.4733C49.7335 54.8359 49.404 54.8583 48.7156 55.5923ZM44.6617 57.7291C43.8237 58.5898 43.8295 58.8543 44.7045 59.6471C45.5969 60.4553 45.8712 60.4497 46.6934 59.6059C47.5315 58.7453 47.5257 58.4808 46.6506 57.6879C45.7582 56.8797 45.4839 56.8853 44.6617 57.7291ZM40.2961 57.9333C40.024 58.0867 39.5649 58.56 39.2763 58.9853C38.7635 59.7396 38.7714 59.7788 39.5988 60.612C40.6516 61.6715 40.9271 61.6747 41.9554 60.6394C42.9819 59.6065 42.9786 59.4065 41.9194 58.4281C40.9607 57.5424 40.9799 57.548 40.2961 57.9333ZM59.5976 58.6443L58.5739 59.6628L59.5237 60.5788C60.5557 61.574 61.0071 61.5266 62.1558 60.3025C62.7431 59.6769 62.7413 59.6698 61.6836 58.6499L60.6214 57.6255L59.5976 58.6443ZM52.2441 59.5511V60.8765H53.4657H54.6874V59.5511V58.2257H53.4657H52.2441V59.5511ZM49.3936 62.2511C49.2815 62.3589 49.1899 63.0216 49.1899 63.7238V65H50.717H52.2441V63.5273V62.0547H50.9207C50.1926 62.0547 49.5054 62.143 49.3936 62.2511Z" fill="white"></path>
<g filter="url('#filter0_d_209_16')">
<circle cx="50.6406" cy="50.5" r="28.5" stroke="white" stroke-width="2"></circle>
</g>
<defs>
<filter id="filter0_d_209_16" x="0.140625" y="0" width="101" height="101" filterUnits="userSpaceOnUse" color-interpolation-filters="sRGB">
<feFlood flood-opacity="0" result="BackgroundImageFix"></feFlood>
<feColorMatrix in="SourceAlpha" type="matrix" values="0 0 0 0 0 0 0 0 0 0 0 0 0 0 0 0 0 0 127 0" result="hardAlpha"></feColorMatrix>
<feMorphology radius="1" operator="dilate" in="SourceAlpha" result="effect1_dropShadow_209_16"></feMorphology>
<feOffset></feOffset>
<feGaussianBlur stdDeviation="10"></feGaussianBlur>
<feColorMatrix type="matrix" values="0 0 0 0 0.0823529 0 0 0 0 0.929412 0 0 0 0 0.929412 0 0 0 1 0"></feColorMatrix>
<feBlend mode="normal" in2="BackgroundImageFix" result="effect1_dropShadow_209_16"></feBlend>
<feBlend mode="normal" in="SourceGraphic" in2="effect1_dropShadow_209_16" result="shape"></feBlend>
</filter>
</defs>
</svg>
