<svg width="102" height="101" viewBox="0 0 102 101" fill="none" xmlns="http://www.w3.org/2000/svg">
<path d="M61.0874 40.0437C60.8068 39.7771 60.4345 39.6284 60.0474 39.6284C59.6603 39.6284 59.288 39.7771 59.0074 40.0437L46.4975 52.5536L45.4861 51.5421C45.2101 51.2666 44.8361 51.1119 44.4461 51.1119C44.0562 51.1119 43.6822 51.2666 43.4061 51.5421L42.6533 52.2949C42.6156 52.3326 42.5857 52.3774 42.5652 52.4266C42.5448 52.4759 42.5343 52.5287 42.5343 52.5821C42.5343 52.6354 42.5448 52.6882 42.5652 52.7375C42.5857 52.7868 42.6156 52.8315 42.6533 52.8692L43.3875 53.6034C43.5102 53.7273 43.579 53.8946 43.579 54.0689C43.579 54.2432 43.5102 54.4105 43.3875 54.5343L39.473 58.4489C37.3632 60.6593 40.4354 63.7549 42.6446 61.6954L46.5963 57.7436C46.7219 57.6241 46.8886 57.5574 47.062 57.5574C47.2354 57.5574 47.4021 57.6241 47.5277 57.7436L48.2615 58.4774C48.2992 58.5151 48.3439 58.5451 48.3932 58.5655C48.4425 58.5859 48.4953 58.5964 48.5486 58.5964C48.602 58.5964 48.6548 58.5859 48.7041 58.5655C48.7533 58.5451 48.7981 58.5151 48.8358 58.4774L49.5886 57.7246C49.8641 57.4486 50.0188 57.0747 50.0188 56.6848C50.0188 56.2949 49.8641 55.9209 49.5886 55.645L48.5772 54.6335L61.0874 42.1237C61.3617 41.8471 61.5156 41.4733 61.5156 41.0837C61.5156 40.6941 61.3617 40.3203 61.0874 40.0437ZM40.8914 61.5395C40.6643 61.516 40.446 61.439 40.2544 61.315C40.0627 61.1909 39.9031 61.0233 39.7886 60.8257C39.6742 60.6282 39.6081 60.4064 39.5957 60.1784C39.5834 59.9505 39.6251 59.7228 39.7176 59.5141L41.6221 61.4186C41.3933 61.522 41.1413 61.5637 40.8914 61.5395ZM42.2717 60.9196L40.2113 58.8592L41.3602 57.7103L43.4206 59.7707L42.2717 60.9196ZM43.9949 59.1963L41.9346 57.136L43.0834 55.9871L45.1438 58.0475L43.9949 59.1963ZM49.0143 56.2193C49.1375 56.3429 49.2068 56.5103 49.2068 56.6848C49.2068 56.8593 49.1375 57.0267 49.0143 57.1502L48.5486 57.6159L48.102 57.1693C47.826 56.8938 47.452 56.7391 47.062 56.7391C46.6721 56.7391 46.298 56.8938 46.022 57.1693L45.7182 57.4731L43.6578 55.4127L43.9618 55.1087C44.2373 54.8328 44.392 54.4588 44.392 54.0689C44.392 53.679 44.2373 53.305 43.9618 53.0291L43.5148 52.5821L43.9805 52.1164C44.104 51.993 44.2715 51.9236 44.4461 51.9236C44.6208 51.9236 44.7883 51.993 44.9118 52.1164L47.7154 54.9203L49.0143 56.2193ZM60.5131 41.5494L48.0029 54.0591L47.0719 53.1279L59.5817 40.618C59.706 40.4982 59.8723 40.4319 60.0449 40.4335C60.2175 40.4351 60.3826 40.5043 60.5047 40.6264C60.6268 40.7484 60.696 40.9136 60.6976 41.0862C60.6992 41.2588 60.6329 41.4251 60.5131 41.5494Z" fill="white"></path>
<path d="M48.5684 46.133C48.5682 46.1863 48.5786 46.2392 48.5988 46.2885C48.6191 46.3378 48.6489 46.3827 48.6865 46.4205C48.7241 46.4583 48.7688 46.4884 48.818 46.5089C48.8672 46.5295 48.92 46.5402 48.9733 46.5403C49.0267 46.5405 49.0795 46.5301 49.1289 46.5098C49.1782 46.4896 49.223 46.4598 49.2609 46.4222C49.2987 46.3846 49.3287 46.3399 49.3493 46.2907C49.3699 46.2415 49.3805 46.1887 49.3807 46.1353C49.3839 45.5612 49.6135 45.0116 50.0194 44.6056C50.4254 44.1996 50.975 43.9701 51.5492 43.9669C51.6554 43.9644 51.7565 43.9204 51.8307 43.8442C51.9049 43.768 51.9463 43.6658 51.946 43.5595C51.9456 43.4532 51.9037 43.3513 51.829 43.2755C51.7544 43.1998 51.653 43.1564 51.5467 43.1545C50.7583 43.1594 50.0036 43.4748 49.4461 44.0323C48.8886 44.5898 48.5732 45.3446 48.5684 46.133Z" fill="white"></path>
<path d="M46.6532 46.1619C46.7066 46.162 46.7594 46.1515 46.8087 46.1311C46.858 46.1107 46.9028 46.0808 46.9405 46.043C46.9782 46.0053 47.0081 45.9605 47.0285 45.9112C47.0489 45.862 47.0594 45.8091 47.0594 45.7558C47.0661 44.6677 47.5014 43.6261 48.2708 42.8567C49.0402 42.0873 50.0818 41.6521 51.1699 41.6454C51.2232 41.6454 51.276 41.6349 51.3253 41.6145C51.3746 41.594 51.4194 41.5641 51.4571 41.5264C51.4948 41.4887 51.5247 41.4439 51.5451 41.3946C51.5655 41.3453 51.576 41.2925 51.576 41.2392C51.576 41.1858 51.5655 41.133 51.5451 41.0837C51.5247 41.0345 51.4948 40.9897 51.4571 40.952C51.4193 40.9142 51.3746 40.8843 51.3253 40.8639C51.276 40.8435 51.2232 40.833 51.1698 40.833C49.8648 40.8348 48.6137 41.354 47.6909 42.2768C46.768 43.1996 46.2488 44.4507 46.2471 45.7558C46.247 45.8091 46.2575 45.862 46.2779 45.9112C46.2983 45.9605 46.3282 46.0053 46.366 46.043C46.4037 46.0808 46.4485 46.1107 46.4978 46.1311C46.5471 46.1515 46.5999 46.162 46.6532 46.1619Z" fill="white"></path>
<path d="M57.9763 49.5841C57.9765 49.4765 57.934 49.3733 57.8582 49.297C57.7823 49.2207 57.6793 49.1777 57.5718 49.1772C57.4642 49.1768 57.3609 49.2191 57.2844 49.2948C57.208 49.3705 57.1647 49.4734 57.164 49.5809C57.1609 50.1553 56.9313 50.7052 56.5252 51.1113C56.1191 51.5175 55.5691 51.747 54.9948 51.7502C54.8884 51.7525 54.7871 51.7966 54.7129 51.8729C54.6386 51.9491 54.5972 52.0515 54.5977 52.1579C54.5981 52.2643 54.6403 52.3664 54.7151 52.442C54.79 52.5177 54.8915 52.561 54.998 52.5625C55.7863 52.5575 56.541 52.2421 57.0985 51.6846C57.6559 51.1271 57.9713 50.3724 57.9763 49.5841Z" fill="white"></path>
<path d="M59.8922 49.5547C59.8389 49.5547 59.786 49.5651 59.7368 49.5855C59.6875 49.6059 59.6427 49.6359 59.605 49.6736C59.5672 49.7113 59.5373 49.7561 59.5169 49.8054C59.4965 49.8547 59.486 49.9075 59.4861 49.9609C59.4793 51.0489 59.044 52.0905 58.2746 52.86C57.5053 53.6294 56.4637 54.0648 55.3756 54.0716C55.2681 54.072 55.1651 54.1149 55.0892 54.1911C55.0133 54.2672 54.9707 54.3703 54.9707 54.4778C54.9707 54.5853 55.0133 54.6885 55.0892 54.7646C55.1651 54.8407 55.2681 54.8837 55.3756 54.884C56.6807 54.8823 57.9319 54.363 58.8547 53.4401C59.7776 52.5172 60.2967 51.266 60.2984 49.9609C60.2984 49.9075 60.2879 49.8547 60.2675 49.8054C60.2471 49.7561 60.2172 49.7113 60.1795 49.6736C60.1418 49.6359 60.097 49.6059 60.0477 49.5855C59.9984 49.5651 59.9456 49.5547 59.8922 49.5547Z" fill="white"></path>
<g filter="url('#filter0_d_209_14')">
<circle cx="50.6406" cy="50.5" r="28.5" stroke="white" stroke-width="2"></circle>
</g>
<defs>
<filter id="filter0_d_209_14" x="0.140625" y="0" width="101" height="101" filterUnits="userSpaceOnUse" color-interpolation-filters="sRGB">
<feFlood flood-opacity="0" result="BackgroundImageFix"></feFlood>
<feColorMatrix in="SourceAlpha" type="matrix" values="0 0 0 0 0 0 0 0 0 0 0 0 0 0 0 0 0 0 127 0" result="hardAlpha"></feColorMatrix>
<feMorphology radius="1" operator="dilate" in="SourceAlpha" result="effect1_dropShadow_209_14"></feMorphology>
<feOffset></feOffset>
<feGaussianBlur stdDeviation="10"></feGaussianBlur>
<feColorMatrix type="matrix" values="0 0 0 0 0.0823529 0 0 0 0 0.929412 0 0 0 0 0.929412 0 0 0 1 0"></feColorMatrix>
<feBlend mode="normal" in2="BackgroundImageFix" result="effect1_dropShadow_209_14"></feBlend>
<feBlend mode="normal" in="SourceGraphic" in2="effect1_dropShadow_209_14" result="shape"></feBlend>
</filter>
</defs>
</svg>
