<svg width="60" height="59" viewBox="0 0 60 59" fill="none" xmlns="http://www.w3.org/2000/svg">
<path d="M26.3613 32.9385L33.0778 26.222L33.9174 27.0615L27.2009 33.778L26.3613 32.9385Z" fill="white"></path>
<path d="M31.2573 30.8372C30.5627 31.5319 30.5627 32.66 31.2573 33.3547C31.5958 33.6931 32.0411 33.8772 32.5161 33.8772C32.9911 33.8772 33.4364 33.6931 33.7748 33.3547C34.4695 32.66 34.4695 31.5319 33.7748 30.8372C33.1039 30.1662 31.9283 30.1662 31.2573 30.8372ZM32.9377 32.5175C32.712 32.7431 32.3202 32.7431 32.1005 32.5175C31.8689 32.2859 31.8689 31.9119 32.1005 31.6803C32.2133 31.5675 32.3617 31.5081 32.522 31.5081C32.6823 31.5081 32.8308 31.5675 32.9436 31.6803C33.1752 31.9119 33.1752 32.2859 32.9436 32.5175H32.9377Z" fill="white"></path>
<path d="M26.5073 26.6391C25.8127 27.3338 25.8127 28.4619 26.5073 29.1566C26.8458 29.495 27.2911 29.6791 27.7661 29.6791C28.2411 29.6791 28.6864 29.495 29.0248 29.1566C29.7195 28.4619 29.7195 27.3338 29.0248 26.6391C28.3302 25.9444 27.1783 25.9682 26.5073 26.6391ZM28.1877 28.3194C27.962 28.545 27.5702 28.545 27.3505 28.3194C27.1189 28.0879 27.1189 27.7138 27.3505 27.4822C27.4633 27.3694 27.6117 27.31 27.772 27.31C27.9323 27.31 28.0808 27.3694 28.1936 27.4822C28.4252 27.7138 28.4252 28.0879 28.1936 28.3194H28.1877Z" fill="white"></path>
<path d="M44.3905 19.3124V46.0311H45.578V19.9061H47.953C48.1846 19.9061 48.3924 19.7755 48.4934 19.5618C48.5884 19.3539 48.5587 19.1046 48.4102 18.9324L42.4727 11.8074C42.2471 11.5343 41.784 11.5343 41.5584 11.8074L35.6209 18.9324C35.4724 19.1105 35.4427 19.3539 35.5377 19.5618C35.6327 19.7696 35.8465 19.9061 36.078 19.9061H38.453V29.9999C38.453 34.5836 34.7243 38.3124 30.1405 38.3124C27.8368 38.3124 25.6162 37.3446 24.0427 35.6524L23.1699 36.4599C24.963 38.3896 27.5043 39.4999 30.1346 39.4999C35.3715 39.4999 39.6346 35.2368 39.6346 29.9999V19.3124C39.6346 18.9858 39.3674 18.7186 39.0409 18.7186H37.3427L42.0096 13.1136L46.6765 18.7186H44.9784C44.6518 18.7186 44.3846 18.9858 44.3846 19.3124H44.3905Z" fill="white"></path>
<path d="M15.8908 40.6875V13.9688H14.7033V40.0938H12.3283C12.0968 40.0938 11.889 40.2244 11.788 40.4381C11.693 40.6459 11.7227 40.8953 11.8711 41.0675L17.8086 48.1925C17.9215 48.3291 18.0877 48.4062 18.2658 48.4062C18.444 48.4062 18.6102 48.3291 18.723 48.1925L24.6605 41.0675C24.809 40.8894 24.8386 40.6459 24.7436 40.4381C24.6486 40.2303 24.4349 40.0938 24.2033 40.0938H21.8283V30C21.8283 25.4163 25.5571 21.6875 30.1408 21.6875C32.4446 21.6875 34.6652 22.6553 36.2386 24.3475L37.1115 23.54C35.3183 21.6103 32.7771 20.5 30.1468 20.5C24.9099 20.5 20.6468 24.7631 20.6468 30V40.6875C20.6468 41.0141 20.914 41.2812 21.2405 41.2812H22.9386L18.2718 46.8862L13.6049 41.2812H15.303C15.6296 41.2812 15.8968 41.0141 15.8968 40.6875H15.8908Z" fill="white"></path>
<circle cx="29.6406" cy="29.5" r="28.5" stroke="white" stroke-width="2"></circle>
</svg>
