<svg width="60" height="60" viewBox="0 0 60 60" fill="none" xmlns="http://www.w3.org/2000/svg">
<path d="M19.2101 33.46C18.5626 33.1474 17.8399 32.9667 17.074 32.9667C14.3538 32.9667 12.1406 35.1799 12.1406 37.9C12.1406 40.6201 14.3538 42.8333 17.074 42.8333C18.7809 42.8333 20.2874 41.9614 21.1736 40.6399L25.8337 42.9727C25.7535 43.3248 25.7073 43.6905 25.7073 44.0667C25.7073 46.7868 27.9205 49 30.6406 49C33.3607 49 35.574 46.7868 35.574 44.0667C35.574 43.0442 35.2613 42.094 34.726 41.3052L41.2744 34.4584C42.0958 35.0676 43.1084 35.4333 44.2073 35.4333C46.9274 35.4333 49.1406 33.2201 49.1406 30.5C49.1406 27.7799 46.9274 25.5667 44.2073 25.5667C43.0689 25.5667 42.0231 25.9576 41.1869 26.6076L34.533 19.9538C35.183 19.1176 35.574 18.0717 35.574 16.9333C35.574 14.2132 33.3607 12 30.6406 12C27.9205 12 25.7073 14.2132 25.7073 16.9333C25.7073 17.3083 25.7529 17.6727 25.8331 18.0242L21.4597 19.6177C20.6395 18.0261 18.9838 16.9333 17.074 16.9333C14.3538 16.9333 12.1406 19.1466 12.1406 21.8667C12.1406 24.5868 14.3538 26.8 17.074 26.8C17.7757 26.8 18.4423 26.6508 19.0473 26.385L21.3172 30.2052L19.2101 33.46ZM17.074 41.6C15.0334 41.6 13.374 39.9405 13.374 37.9C13.374 35.8594 15.0334 34.2 17.074 34.2C19.1145 34.2 20.774 35.8594 20.774 37.9C20.774 39.9405 19.1145 41.6 17.074 41.6ZM21.723 39.5348C21.9037 39.0223 22.0073 38.4735 22.0073 37.9C22.0073 36.3873 21.3216 35.0331 20.2467 34.1278L22.0202 31.3886L27.3674 40.3864C26.9172 40.7872 26.5404 41.267 26.2611 41.8066L21.723 39.5348ZM30.6406 21.8667C31.779 21.8667 32.8249 21.4757 33.6611 20.8257L40.3155 27.4802C39.9165 27.9933 39.6181 28.5859 39.446 29.2309L35.5721 28.6981C35.5715 28.6821 35.574 28.666 35.574 28.65C35.574 25.9299 33.3607 23.7167 30.6406 23.7167C28.9337 23.7167 27.4266 24.5886 26.541 25.9101L25.8053 25.5426L28.5051 21.3733C29.152 21.686 29.8747 21.8667 30.6406 21.8667ZM31.2573 39.1759V33.5402C33.2615 33.2886 34.8919 31.832 35.4025 29.9191L39.2764 30.4519C39.2764 30.4679 39.274 30.484 39.274 30.5C39.274 31.6778 39.6896 32.7589 40.3809 33.608L33.9059 40.3784C33.1801 39.7352 32.2668 39.3029 31.2573 39.1759ZM30.6406 24.95C32.6812 24.95 34.3406 26.6095 34.3406 28.65C34.3406 30.6905 32.6812 32.35 30.6406 32.35C28.6001 32.35 26.9406 30.6905 26.9406 28.65C26.9406 26.6095 28.6001 24.95 30.6406 24.95ZM25.9916 27.0152C25.8109 27.5277 25.7073 28.0765 25.7073 28.65C25.7073 31.1611 27.5943 33.2355 30.024 33.5408V39.1765C29.4394 39.2499 28.8874 39.425 28.3849 39.6846L22.7683 30.233L25.1307 26.5848L25.9916 27.0152ZM30.6406 47.7667C28.6001 47.7667 26.9406 46.1072 26.9406 44.0667C26.9406 42.0261 28.6001 40.3667 30.6406 40.3667C32.6812 40.3667 34.3406 42.0261 34.3406 44.0667C34.3406 46.1072 32.6812 47.7667 30.6406 47.7667ZM44.2073 26.8C46.2478 26.8 47.9073 28.4594 47.9073 30.5C47.9073 32.5406 46.2478 34.2 44.2073 34.2C42.1667 34.2 40.5073 32.5406 40.5073 30.5C40.5073 28.4594 42.1667 26.8 44.2073 26.8ZM30.6406 13.2333C32.6812 13.2333 34.3406 14.8928 34.3406 16.9333C34.3406 18.9739 32.6812 20.6333 30.6406 20.6333C28.6001 20.6333 26.9406 18.9739 26.9406 16.9333C26.9406 14.8928 28.6001 13.2333 30.6406 13.2333ZM26.2549 19.1823C26.5564 19.7675 26.969 20.2849 27.4679 20.7055L24.6953 24.9876L21.723 23.5014C21.9037 22.989 22.0073 22.4402 22.0073 21.8667C22.0073 21.4917 21.9617 21.1273 21.8815 20.7758L26.2549 19.1823ZM13.374 21.8667C13.374 19.8261 15.0334 18.1667 17.074 18.1667C19.1145 18.1667 20.774 19.8261 20.774 21.8667C20.774 23.9072 19.1145 25.5667 17.074 25.5667C15.0334 25.5667 13.374 23.9072 13.374 21.8667ZM20.1049 25.751C20.518 25.4279 20.8806 25.0431 21.1736 24.6065L24.0207 26.0298L22.0653 29.0496L20.1049 25.751Z" fill="white"></path>
<circle cx="29.6406" cy="29.9648" r="28.5" stroke="white" stroke-width="2"></circle>
</svg>
