<svg width="60" height="60" viewBox="0 0 60 60" fill="none" xmlns="http://www.w3.org/2000/svg">
<circle cx="29.6406" cy="29.9648" r="28.5" stroke="white" stroke-width="2"></circle>
<path d="M19.3224 10.9999H40.9588C41.8026 10.9999 42.6119 11.3351 43.2087 11.9318C43.8054 12.5285 44.1406 13.3378 44.1406 14.1817V38.6371C44.1433 39.4408 43.8382 40.215 43.2879 40.8007L36.4533 48.1635C36.1559 48.4841 35.7956 48.7401 35.3949 48.9152C34.9941 49.0904 34.5616 49.1811 34.1242 49.1816H19.3224C18.4786 49.1816 17.6693 48.8464 17.0726 48.2497C16.4759 47.653 16.1406 46.8437 16.1406 45.9998V14.1817C16.1406 13.3378 16.4759 12.5285 17.0726 11.9318C17.6693 11.3351 18.4786 10.9999 19.3224 10.9999ZM30.1406 24.3635C30.0147 24.3635 29.8917 24.4008 29.7871 24.4707C29.6824 24.5407 29.6008 24.6401 29.5527 24.7563C29.5045 24.8726 29.4919 25.0006 29.5165 25.124C29.541 25.2474 29.6016 25.3608 29.6906 25.4498C29.7796 25.5388 29.893 25.5994 30.0165 25.624C30.1399 25.6485 30.2678 25.6359 30.3841 25.5878C30.5004 25.5396 30.5998 25.4581 30.6697 25.3534C30.7396 25.2488 30.777 25.1257 30.777 24.9999C30.777 24.8311 30.7099 24.6692 30.5906 24.5499C30.4712 24.4305 30.3094 24.3635 30.1406 24.3635ZM17.4134 29.1362H25.8452C26.0139 29.1375 26.1756 29.2035 26.297 29.3208L29.4788 32.5089C29.8881 32.3116 30.3541 32.2655 30.7941 32.3788C31.2342 32.4922 31.6199 32.7576 31.883 33.1281C32.146 33.4987 32.2694 33.9504 32.2313 34.4032C32.1931 34.856 31.9959 35.2807 31.6746 35.602C31.3533 35.9233 30.9286 36.1205 30.4758 36.1587C30.023 36.1968 29.5713 36.0734 29.2007 35.8104C28.8302 35.5473 28.5647 35.1616 28.4514 34.7215C28.3381 34.2815 28.3841 33.8155 28.5815 33.4062L25.5842 30.4089H17.4134V45.9998C17.4149 46.5057 17.6165 46.9904 17.9742 47.3481C18.3319 47.7058 18.8166 47.9074 19.3224 47.9089H28.2315V42.4426L23.9615 38.1726C23.5522 38.3699 23.0862 38.416 22.6462 38.3027C22.2061 38.1894 21.8204 37.9239 21.5574 37.5534C21.2943 37.1828 21.1709 36.7311 21.2091 36.2783C21.2472 35.8255 21.4444 35.4008 21.7657 35.0795C22.087 34.7582 22.5117 34.561 22.9645 34.5228C23.4174 34.4847 23.869 34.6081 24.2396 34.8711C24.6101 35.1342 24.8756 35.5199 24.9889 35.96C25.1023 36.4 25.0562 36.866 24.8588 37.2753L29.3197 41.7298C29.4369 41.8512 29.503 42.0129 29.5042 42.1817V47.9089H34.1242C34.2837 47.908 34.4423 47.8844 34.5951 47.8389V41.9271C34.5951 41.1507 34.9036 40.4062 35.4525 39.8572C36.0015 39.3082 36.746 38.9998 37.5224 38.9998H42.8297C42.855 38.8806 42.8678 38.759 42.8679 38.6371V30.4089H41.2197L38.2224 33.4062C38.4198 33.8155 38.4659 34.2815 38.3525 34.7215C38.2392 35.1616 37.9737 35.5473 37.6032 35.8104C37.2327 36.0734 36.781 36.1968 36.3282 36.1587C35.8753 36.1205 35.4506 35.9233 35.1293 35.602C34.808 35.2807 34.6108 34.856 34.5727 34.4032C34.5345 33.9504 34.6579 33.4987 34.921 33.1281C35.184 32.7576 35.5697 32.4922 36.0098 32.3788C36.4499 32.2655 36.9158 32.3116 37.3251 32.5089L40.507 29.3208C40.6283 29.2035 40.7901 29.1375 40.9588 29.1362H42.8679V14.1817C42.8663 13.6758 42.6647 13.1911 42.307 12.8334C41.9493 12.4757 41.4646 12.2741 40.9588 12.2726H35.2315V19.0117L37.5924 21.3726C38.0017 21.1752 38.4677 21.1291 38.9078 21.2425C39.3478 21.3558 39.7335 21.6213 39.9966 21.9918C40.2596 22.3623 40.383 22.814 40.3449 23.2668C40.3067 23.7197 40.1095 24.1444 39.7882 24.4657C39.4669 24.787 39.0422 24.9842 38.5894 25.0223C38.1366 25.0605 37.6849 24.9371 37.3143 24.674C36.9438 24.411 36.6784 24.0253 36.565 23.5852C36.4517 23.1451 36.4978 22.6792 36.6951 22.2699L34.1433 19.7244C34.0261 19.6031 33.96 19.4413 33.9588 19.2726V12.2726H30.777V23.2053C31.2016 23.3554 31.5594 23.6508 31.7873 24.0393C32.0151 24.4277 32.0984 24.8842 32.0222 25.3281C31.946 25.7719 31.7154 26.1746 31.3711 26.4648C31.0268 26.7551 30.5909 26.9143 30.1406 26.9143C29.6903 26.9143 29.2544 26.7551 28.9101 26.4648C28.5658 26.1746 28.3352 25.7719 28.259 25.3281C28.1829 24.8842 28.2661 24.4277 28.4939 24.0393C28.7218 23.6508 29.0797 23.3554 29.5042 23.2053V12.2726H26.3224V19.2726C26.3212 19.4413 26.2551 19.6031 26.1379 19.7244L23.5861 22.2699C23.7834 22.6792 23.8295 23.1451 23.7162 23.5852C23.6029 24.0253 23.3374 24.411 22.9669 24.674C22.5963 24.9371 22.1446 25.0605 21.6918 25.0223C21.239 24.9842 20.8143 24.787 20.493 24.4657C20.1717 24.1444 19.9745 23.7197 19.9363 23.2668C19.8982 22.814 20.0216 22.3623 20.2846 21.9918C20.5477 21.6213 20.9334 21.3558 21.3735 21.2425C21.8135 21.1291 22.2795 21.1752 22.6888 21.3726L25.0497 19.0117V12.2726H19.3224C18.8166 12.2741 18.3319 12.4757 17.9742 12.8334C17.6165 13.1911 17.4149 13.6758 17.4134 14.1817V29.1362ZM29.6633 34.2271C29.6633 34.353 29.7007 34.476 29.7706 34.5807C29.8405 34.6853 29.9399 34.7669 30.0562 34.815C30.1724 34.8632 30.3004 34.8758 30.4238 34.8513C30.5473 34.8267 30.6607 34.7661 30.7497 34.6771C30.8387 34.5881 30.8993 34.4747 30.9238 34.3513C30.9484 34.2278 30.9358 34.0999 30.8876 33.9836C30.8395 33.8673 30.7579 33.7679 30.6532 33.698C30.5486 33.6281 30.4256 33.5908 30.2997 33.5908C30.1309 33.5908 29.9691 33.6578 29.8497 33.7771C29.7304 33.8965 29.6633 34.0583 29.6633 34.2271ZM23.777 36.4544C23.777 36.3285 23.7397 36.2055 23.6697 36.1008C23.5998 35.9962 23.5004 35.9146 23.3841 35.8665C23.2679 35.8183 23.1399 35.8057 23.0165 35.8303C22.893 35.8548 22.7796 35.9154 22.6906 36.0044C22.6016 36.0934 22.541 36.2068 22.5165 36.3302C22.4919 36.4537 22.5045 36.5816 22.5527 36.6979C22.6009 36.8142 22.6824 36.9136 22.7871 36.9835C22.8917 37.0534 23.0148 37.0907 23.1406 37.0907C23.3094 37.0907 23.4713 37.0237 23.5906 36.9044C23.7099 36.785 23.777 36.6232 23.777 36.4544ZM37.1406 34.2271C37.1406 34.1013 37.1033 33.9782 37.0333 33.8736C36.9634 33.7689 36.864 33.6874 36.7478 33.6392C36.6315 33.591 36.5035 33.5784 36.3801 33.603C36.2566 33.6275 36.1433 33.6881 36.0543 33.7771C35.9653 33.8661 35.9046 33.9795 35.8801 34.103C35.8555 34.2264 35.8681 34.3544 35.9163 34.4706C35.9645 34.5869 36.046 34.6863 36.1507 34.7562C36.2553 34.8262 36.3784 34.8635 36.5042 34.8635C36.673 34.8635 36.8349 34.7964 36.9542 34.6771C37.0735 34.5578 37.1406 34.3959 37.1406 34.2271ZM37.777 23.0908C37.777 23.2166 37.8143 23.3397 37.8842 23.4443C37.9541 23.549 38.0535 23.6305 38.1698 23.6787C38.2861 23.7269 38.414 23.7395 38.5375 23.7149C38.6609 23.6904 38.7743 23.6297 38.8633 23.5407C38.9523 23.4518 39.0129 23.3384 39.0375 23.2149C39.062 23.0915 39.0494 22.9635 39.0012 22.8472C38.9531 22.731 38.8715 22.6316 38.7669 22.5617C38.6622 22.4917 38.5392 22.4544 38.4133 22.4544C38.2445 22.4544 38.0827 22.5215 37.9633 22.6408C37.844 22.7601 37.777 22.922 37.777 23.0908ZM22.5043 23.0908C22.5043 22.9649 22.4669 22.8419 22.397 22.7372C22.3271 22.6326 22.2277 22.551 22.1114 22.5028C21.9951 22.4547 21.8672 22.4421 21.7437 22.4666C21.6203 22.4912 21.5069 22.5518 21.4179 22.6408C21.3289 22.7298 21.2683 22.8432 21.2438 22.9666C21.2192 23.0901 21.2318 23.218 21.28 23.3343C21.3281 23.4506 21.4097 23.55 21.5143 23.6199C21.619 23.6898 21.742 23.7271 21.8679 23.7271C22.0367 23.7271 22.1985 23.6601 22.3179 23.5407C22.4372 23.4214 22.5043 23.2595 22.5043 23.0908Z" fill="white"></path>
<path d="M19.9586 44.7263H25.0495C25.2183 44.7263 25.3802 44.7933 25.4995 44.9127C25.6188 45.032 25.6859 45.1939 25.6859 45.3627C25.6859 45.5314 25.6188 45.6933 25.4995 45.8126C25.3802 45.932 25.2183 45.999 25.0495 45.999H19.9586C19.7899 45.999 19.628 45.932 19.5087 45.8126C19.3893 45.6933 19.3223 45.5314 19.3223 45.3627C19.3223 45.1939 19.3893 45.032 19.5087 44.9127C19.628 44.7933 19.7899 44.7263 19.9586 44.7263Z" fill="white"></path>
<path d="M23.1404 42.8177C23.1404 42.9865 23.0734 43.1484 22.9541 43.2677C22.8347 43.3871 22.6729 43.4541 22.5041 43.4541H19.9586C19.7899 43.4541 19.628 43.3871 19.5087 43.2677C19.3893 43.1484 19.3223 42.9865 19.3223 42.8177C19.3223 42.649 19.3893 42.4871 19.5087 42.3678C19.628 42.2484 19.7899 42.1814 19.9586 42.1814H22.5041C22.6729 42.1814 22.8347 42.2484 22.9541 42.3678C23.0734 42.4871 23.1404 42.649 23.1404 42.8177Z" fill="white"></path>
</svg>
