<svg width="102" height="101" viewBox="0 0 102 101" fill="none" xmlns="http://www.w3.org/2000/svg">
<g filter="url('#filter0_d_209_18')">
</g>
<g clip-path="url('#clip0_209_18')">
<path d="M48.4505 35.4329C48.145 35.299 47.7845 35.3622 47.5405 35.5939L38.8803 43.773H32.9816C32.5167 43.773 32.1406 44.1491 32.1406 44.6139V56.3866C32.1406 56.8514 32.5167 57.2275 32.9816 57.2275H38.8803L47.5406 65.4067C47.6999 65.5578 47.9077 65.6367 48.1179 65.6367C48.2304 65.6367 48.3438 65.6145 48.4505 65.5677C48.7593 65.4355 48.9589 65.1316 48.9589 64.7957V36.2048C48.9588 35.8689 48.7593 35.5651 48.4505 35.4329ZM47.277 62.8445L39.7917 55.7756C39.6357 55.6278 39.4288 55.5457 39.2144 55.5457H33.8224V45.4547H39.2144C39.4288 45.4547 39.6357 45.3726 39.7917 45.2248L47.277 38.156V62.8445Z" fill="white" fill-opacity="0.4"></path>
<path d="M61.4722 35.5241C61.0928 35.2506 60.5681 35.3361 60.2979 35.7113C60.0253 36.0875 60.109 36.613 60.4851 36.8857C64.8523 40.0489 67.4587 45.1388 67.4587 50.5004C67.4587 55.8619 64.8522 60.9518 60.4851 64.1151C60.109 64.3877 60.0253 64.9133 60.2979 65.2894C60.4621 65.516 60.7192 65.6367 60.9795 65.6367C61.1503 65.6367 61.3228 65.585 61.4722 65.4766C66.2738 61.998 69.1406 56.399 69.1406 50.5004C69.1405 44.6017 66.2738 39.0027 61.4722 35.5241Z" fill="white" fill-opacity="0.4"></path>
<path d="M56.8961 40.5382C56.506 40.2918 55.9845 40.4093 55.7366 40.8026C55.4894 41.1951 55.6077 41.7142 56.001 41.9621C58.9631 43.8262 60.7319 47.0182 60.7319 50.5001C60.7319 53.982 58.963 57.174 56.001 59.0381C55.6076 59.2862 55.4894 59.8051 55.7366 60.1977C55.8967 60.4522 56.1702 60.591 56.4494 60.591C56.6022 60.591 56.7573 60.5492 56.8962 60.4621C60.3509 58.2876 62.4138 54.5643 62.4138 50.5002C62.4138 46.4361 60.3509 42.7128 56.8961 40.5382Z" fill="white" fill-opacity="0.4"></path>
<path d="M53.6432 46.4624C53.2704 46.184 52.7441 46.2629 52.4665 46.634C52.1889 47.0068 52.2661 47.5341 52.6381 47.8108C53.5069 48.4579 54.0046 49.4376 54.0046 50.5003C54.0046 51.5629 53.5069 52.5426 52.6381 53.1897C52.2661 53.4665 52.1889 53.9937 52.4665 54.3665C52.6316 54.5883 52.8845 54.7049 53.1415 54.7049C53.3156 54.7049 53.4922 54.6506 53.6433 54.5381C54.9417 53.5716 55.6865 52.0992 55.6865 50.5003C55.6865 48.9013 54.9416 47.429 53.6432 46.4624Z" fill="white" fill-opacity="0.4"></path>
</g>
<defs>
<filter id="filter0_d_209_18" x="0.140625" y="0" width="37" height="37" filterUnits="userSpaceOnUse" color-interpolation-filters="sRGB">
<feFlood flood-opacity="0" result="BackgroundImageFix"></feFlood>
<feColorMatrix in="SourceAlpha" type="matrix" values="0 0 0 0 0 0 0 0 0 0 0 0 0 0 0 0 0 0 127 0" result="hardAlpha"></feColorMatrix>
<feMorphology radius="1" operator="dilate" in="SourceAlpha" result="effect1_dropShadow_209_18"></feMorphology>
<feOffset></feOffset>
<feGaussianBlur stdDeviation="10"></feGaussianBlur>
<feColorMatrix type="matrix" values="0 0 0 0 0.0823529 0 0 0 0 0.929412 0 0 0 0 0.929412 0 0 0 1 0"></feColorMatrix>
<feBlend mode="normal" in2="BackgroundImageFix" result="effect1_dropShadow_209_18"></feBlend>
<feBlend mode="normal" in="SourceGraphic" in2="effect1_dropShadow_209_18" result="shape"></feBlend>
</filter>
<clipPath id="clip0_209_18">
<rect width="37" height="37" fill="white" transform="translate(32.1406 32)"></rect>
</clipPath>
</defs>
</svg>
