<svg width="60" height="60" viewBox="0 0 60 60" fill="none" xmlns="http://www.w3.org/2000/svg">
<circle cx="29.6406" cy="29.9648" r="28.5" stroke="white" stroke-width="2"></circle>
<path d="M47.1299 20.4908C47.1273 20.4752 47.1279 20.4587 47.1238 20.4433C47.1126 20.4011 47.0959 20.3605 47.0743 20.3225C47.067 20.3095 47.056 20.2991 47.0473 20.2869C47.0317 20.2625 47.0141 20.2394 46.9945 20.218C46.9827 20.2058 46.9676 20.1974 46.9545 20.1864C46.9352 20.1686 46.9144 20.1523 46.8925 20.1378L46.8888 20.1363L46.8856 20.134L42.6477 17.7078C42.571 17.6639 42.484 17.6408 42.3956 17.6408C42.3071 17.6408 42.2202 17.6639 42.1434 17.7078L37.9032 20.1337L37.9001 20.136L37.8963 20.1375C37.8743 20.1521 37.8534 20.1685 37.834 20.1864C37.8209 20.1971 37.805 20.2058 37.7943 20.2177C37.7745 20.2394 37.7566 20.2627 37.7409 20.2875C37.7325 20.2997 37.7218 20.3098 37.7146 20.3225C37.6929 20.3605 37.6762 20.4011 37.665 20.4433C37.6609 20.4581 37.6615 20.474 37.6589 20.4891C37.6528 20.5168 37.6491 20.545 37.6479 20.5734V21.6059L33.8767 19.246C33.8822 19.2206 33.8857 19.1949 33.8871 19.169V14.9329C33.8858 14.905 33.8821 14.8773 33.8761 14.85C33.8735 14.8344 33.8741 14.8179 33.87 14.8025C33.8588 14.7604 33.8421 14.7199 33.8205 14.6821C33.8103 14.667 33.7994 14.6525 33.7877 14.6386C33.7738 14.6171 33.7582 14.5967 33.7411 14.5775C33.7258 14.564 33.7097 14.5514 33.6929 14.5399C33.6758 14.5244 33.6576 14.5102 33.6385 14.4973H33.6356L33.6335 14.4929L29.3931 12.067C29.3163 12.0231 29.2294 12 29.1409 12C29.0525 12 28.9655 12.0231 28.8888 12.067L24.6483 14.4929L24.6448 14.4955H24.6419C24.6227 14.5085 24.6044 14.5229 24.5872 14.5384C24.5705 14.5499 24.5545 14.5624 24.5393 14.5758C24.522 14.5952 24.5062 14.6159 24.4921 14.6377C24.4806 14.6514 24.4699 14.6656 24.4599 14.6803C24.4382 14.7183 24.4216 14.7589 24.4103 14.8011C24.4063 14.8159 24.4069 14.8318 24.4043 14.8469C24.3982 14.8746 24.3945 14.9028 24.3932 14.9311V19.169C24.3947 19.195 24.3982 19.2208 24.4037 19.2463L20.6334 21.6059V20.5736C20.632 20.5458 20.6283 20.5181 20.6223 20.4908C20.6197 20.4752 20.6203 20.4587 20.6163 20.4433C20.605 20.4011 20.5884 20.3605 20.5667 20.3225C20.5595 20.3095 20.5484 20.2991 20.5397 20.2869C20.5242 20.2625 20.5065 20.2394 20.487 20.218C20.4751 20.2058 20.46 20.1974 20.447 20.1864C20.4276 20.1686 20.4069 20.1523 20.385 20.1378L20.3812 20.1363L20.378 20.134L16.1396 17.7078C16.0628 17.6639 15.9759 17.6408 15.8874 17.6408C15.799 17.6408 15.712 17.6639 15.6353 17.7078L11.396 20.1337L11.3928 20.136L11.389 20.1375C11.367 20.1521 11.3461 20.1685 11.3267 20.1864C11.3137 20.1971 11.2977 20.2058 11.287 20.2177C11.2672 20.2394 11.2494 20.2627 11.2337 20.2875C11.2253 20.2997 11.2145 20.3098 11.2073 20.3225C11.1856 20.3605 11.169 20.4011 11.1577 20.4433C11.1537 20.4581 11.1542 20.474 11.1516 20.4891C11.1456 20.5168 11.1419 20.545 11.1406 20.5734V24.8094C11.1406 24.9004 11.1651 24.9898 11.2116 25.068C11.258 25.1463 11.3247 25.2107 11.4047 25.2543L15.3799 27.4233V33.2268L11.396 35.5068L11.3928 35.5091L11.389 35.5105C11.367 35.5252 11.3461 35.5415 11.3267 35.5595C11.3137 35.5702 11.2977 35.5789 11.287 35.5908C11.2672 35.6124 11.2494 35.6358 11.2337 35.6606C11.2253 35.6727 11.2145 35.6829 11.2073 35.6956C11.1856 35.7336 11.169 35.7742 11.1577 35.8164C11.1537 35.8312 11.1542 35.8471 11.1516 35.8621C11.1456 35.8899 11.1419 35.9181 11.1406 35.9464V40.1825C11.1407 40.2736 11.1653 40.3629 11.2118 40.4412C11.2584 40.5195 11.3252 40.5838 11.4053 40.6274L15.6442 42.9394C15.6681 42.951 15.6928 42.9607 15.7182 42.9684C15.7318 42.9733 15.7445 42.9806 15.7584 42.984C15.8428 43.007 15.9318 43.007 16.0161 42.984C16.03 42.9803 16.0428 42.973 16.0564 42.9684C16.0818 42.9607 16.1065 42.951 16.1303 42.9394L19.7296 40.9761L24.3961 44.0806V46.1812C24.3961 46.2722 24.4206 46.3616 24.4671 46.4399C24.5136 46.5181 24.5803 46.5825 24.6602 46.6261L28.8992 48.9382C28.923 48.9498 28.9477 48.9595 28.9731 48.9671C28.9867 48.9721 28.9995 48.9793 29.0134 48.9828C29.0977 49.0057 29.1867 49.0057 29.2711 48.9828C29.285 48.979 29.2977 48.9718 29.3113 48.9671C29.3367 48.9595 29.3614 48.9498 29.3853 48.9382L33.6231 46.6255C33.703 46.5819 33.7697 46.5176 33.8162 46.4393C33.8626 46.361 33.8872 46.2717 33.8871 46.1807V44.08L38.5537 40.9755L42.153 42.9389C42.1768 42.9505 42.2015 42.9601 42.2269 42.9678C42.2405 42.9728 42.2533 42.98 42.2672 42.9835C42.3515 43.0064 42.4405 43.0064 42.5248 42.9835C42.5387 42.9797 42.5515 42.9725 42.5651 42.9678C42.5905 42.9601 42.6152 42.9505 42.639 42.9389L46.8766 40.6274C46.9565 40.5837 47.0232 40.5194 47.0697 40.4411C47.1161 40.3628 47.1406 40.2735 47.1406 40.1825V35.9467C47.1393 35.9188 47.1356 35.8911 47.1296 35.8639C47.127 35.8482 47.1276 35.8317 47.1235 35.8164C47.1123 35.7742 47.0956 35.7336 47.074 35.6956C47.0667 35.6826 47.0557 35.6721 47.047 35.66C47.0314 35.6355 47.0138 35.6125 46.9943 35.591C46.9824 35.5789 46.9673 35.5705 46.9543 35.5595C46.9349 35.5417 46.9142 35.5254 46.8922 35.5108L46.8885 35.5094L46.8853 35.5071L42.9013 33.2271V27.4233L46.8763 25.2552C46.9562 25.2115 47.0229 25.1472 47.0694 25.0689C47.1158 24.9906 47.1404 24.9013 47.1403 24.8103V20.5736C47.1392 20.5458 47.1357 20.5181 47.1299 20.4908ZM32.211 42.0057L29.1409 43.6803L26.0709 42.0057L25.941 41.9347L29.1409 40.1037L32.3408 41.9336L32.211 42.0057ZM19.6189 24.5088L16.3944 26.2674V23.1866L19.6189 21.428V24.5088ZM15.8871 34.1047L19.087 35.9357L18.9572 36.0067L15.8871 37.6813L12.8171 36.0067L12.6872 35.9357L15.8871 34.1047ZM20.0835 35.3379L16.3944 33.2265V27.4233L19.7548 25.5903L24.3947 28.607V32.305L20.0835 35.3379ZM25.4092 18.868V15.7873L28.6337 17.547V20.6269L25.4092 18.868ZM32.8727 18.868L29.6481 20.6269V17.547L32.8727 15.7879V18.868ZM29.1409 26.4901L32.3408 28.3211L32.211 28.3921L29.1409 30.0667L26.0709 28.3921L25.941 28.3211L29.1409 26.4901ZM25.4092 29.1863L28.6337 30.9452V34.0268L25.4092 32.2673V29.1863ZM29.6481 30.9452L32.8727 29.1863V32.2673L29.6481 34.0268V30.9452ZM33.8871 28.607L38.527 25.5894L41.8875 27.4233V33.2268L38.1983 35.3382L33.8871 32.305V28.607ZM41.8869 23.1866V26.2674L38.6629 24.5088V21.428L41.8869 23.1866ZM38.6629 39.8819V36.8008L41.8875 38.5597V41.6405L38.6629 39.8819ZM45.4647 36.0067L42.3947 37.6813L39.3244 36.0067L39.1945 35.9357L42.3944 34.1047L45.5943 35.9357L45.4647 36.0067ZM42.3947 18.7316L45.5946 20.5626L45.4647 20.6336L42.3947 22.3082L39.3244 20.6336L39.1945 20.5626L42.3947 18.7316ZM37.6661 24.9395L33.3631 27.7381L29.6481 25.6123V21.782L33.0509 19.9255L37.6482 22.802V24.8091C37.6485 24.8532 37.6545 24.897 37.6661 24.9395ZM29.1409 13.0911L32.3405 14.9225L29.2812 16.5913L29.1409 16.6677L29.0006 16.5913L25.9413 14.9222L29.1409 13.0911ZM25.2309 19.9263L28.6337 21.7828V25.6123L24.9187 27.7381L20.6157 24.9395C20.6272 24.897 20.6332 24.8532 20.6334 24.8091V22.802L25.2309 19.9263ZM15.8871 18.7316L19.087 20.5626L18.9572 20.6336L15.8871 22.3082L12.8171 20.6336L12.6872 20.5626L15.8871 18.7316ZM12.156 21.428L15.3805 23.1869V26.2674L12.156 24.5088V21.428ZM12.156 36.8011L15.3805 38.56V41.6408L12.156 39.8819V36.8011ZM16.3949 38.56L19.6195 36.8011V39.8819L16.3949 41.6405V38.56ZM20.6052 40.3406C20.6234 40.2897 20.6332 40.2362 20.6342 40.1822V36.1912L24.9358 33.164L28.6337 35.1809V39.2259L24.6483 41.5058L24.6451 41.5081L24.6414 41.5096C24.6193 41.5242 24.5985 41.5406 24.579 41.5585C24.566 41.5692 24.55 41.5779 24.5393 41.5898C24.5195 41.6115 24.5017 41.6348 24.486 41.6596C24.4776 41.6718 24.4669 41.6819 24.4596 41.6946C24.438 41.7326 24.4213 41.7732 24.4101 41.8154C24.406 41.8302 24.4066 41.8461 24.404 41.8612C24.3979 41.8889 24.3942 41.9171 24.393 41.9454V42.8624L20.6052 40.3406ZM25.4092 43.8066V42.7996L28.6337 44.5585V47.6392L25.4092 45.8806V43.8066ZM29.6481 47.6392V44.5587L32.8727 42.7998V45.8809L29.6481 47.6392ZM33.8871 41.9454C33.8858 41.9176 33.8821 41.8899 33.8761 41.8626C33.8735 41.847 33.8741 41.8305 33.87 41.8151C33.8588 41.7729 33.8421 41.7323 33.8205 41.6943C33.8132 41.6813 33.8022 41.6709 33.7935 41.6587C33.778 41.6343 33.7603 41.6112 33.7408 41.5898C33.7289 41.5776 33.7138 41.5692 33.7008 41.5582C33.6814 41.5404 33.6607 41.5241 33.6387 41.5096L33.635 41.5081L33.6318 41.5058L29.6481 39.2259V35.1809L33.346 33.164L37.6485 36.1912V40.1825C37.6495 40.2365 37.6593 40.29 37.6775 40.3409L33.888 42.8627L33.8871 41.9454ZM42.9013 41.6402V38.5597L46.1259 36.8008V39.8819L42.9013 41.6402ZM42.9013 26.2671V23.1866L46.1259 21.428V24.5088L42.9013 26.2671Z" fill="white"></path>
</svg>
